<svg viewBox="0 -4 512.00051 512" xmlns="http://www.w3.org/2000/svg"><path d="m511.847656 131.988281-2.292968-16.5c-.574219-4.140625-2.738282-7.800781-6.09375-10.296875-3.351563-2.5-7.476563-3.53125-11.613282-2.894531l-268.425781 41.054687c.941406-8.25 3.300781-13.289062 6.308594-19.675781.507812-1.078125 1.03125-2.238281 1.558593-3.472656l246.183594-73.945313c4.003906-1.203124 7.285156-3.902343 9.246094-7.597656 1.953125-3.695312 2.339844-7.929687 1.082031-11.917968l-5.007812-15.886719c-1.257813-3.988281-4-7.234375-7.722657-9.140625-3.722656-1.910156-7.960937-2.234375-11.933593-.921875l-73.367188 24.230469c-3.925781 1.296874-6.058593 5.53125-4.761719 9.460937 1.296876 3.925781 5.527344 6.058594 9.460938 4.761719l73.367188-24.230469c.054687-.019531.214843-.070313.40625.03125.199218.097656.246093.257813.261718.308594l5.011719 15.890625c.015625.050781.066406.210937-.039063.40625-.101562.195312-.261718.242187-.3125.257812l-235.902343 70.855469c.101562-.378906.1875-.765625.285156-1.144531.085937-.347656.171875-.691406.253906-1.039063.148438-.617187.292969-1.234375.433594-1.855469.085937-.390624.171875-.78125.257813-1.175781.125-.585937.246093-1.171875.359374-1.757812.09375-.460938.183594-.925781.269532-1.394531.097656-.53125.195312-1.058594.289062-1.589844.09375-.542969.183594-1.09375.269532-1.644532.042968-.28125.097656-.5625.140624-.839843l121.289063-40.058594c3.925781-1.296875 6.058594-5.535156 4.761719-9.460937-1.296875-3.929688-5.53125-6.0625-9.460938-4.765626l-117.355468 38.761719c-.816407-1.414062-1.894532-2.6875-3.21875-3.734375-3.445313-2.714844-7.988282-3.519531-12.152344-2.140625l-12.335938 4.074219c-4.992187 1.644531-8.484375 6.089844-8.898437 11.324219-.074219.925781-.167969 1.804687-.273438 2.65625l-16.496093 5.449219c-.660157-1.148438-1.488282-2.207032-2.492188-3.125-3.46875-3.175782-8.398438-4.230469-12.867188-2.753907l-13.730468 4.535157c-3.710938 1.222656-6.648438 4.027343-8.0625 7.679687-.921875 2.375-2 4.691406-3.058594 6.941406l-17.617188 5.820313c-.433593-.753906-.941406-1.472656-1.535156-2.140625-3.457031-3.902344-8.890625-5.367188-13.839844-3.734375l-15.082031 4.980468c-3.828125 1.265626-6.800781 4.152344-8.15625 7.917969-.761719 2.101563-1.417969 4.234375-2.011719 6.390625l-16.847656 5.566406c-.703125-1.21875-1.617187-2.335937-2.71875-3.304687-3.503906-3.070313-8.238281-4.027344-12.660156-2.566406l-12.359375 4.082031c-4.867187 1.609375-8.351563 5.953125-8.878906 11.066406-.097657.953125-.183594 1.921875-.261719 2.902344l-16.515625 5.457031c-8.011719 2.644531-12.464844 11.34375-9.929687 19.390625l1.167968 3.699219c1.355469 4.304687 4.460938 7.601563 8.289063 9.378906-1.804688 2.953125-2.644531 6.519531-2.136719 10.1875l.535156 3.84375c1.074219 7.714844 7.761719 13.371094 15.371094 13.371094.632812 0 1.269531-.039063 1.914062-.117187l15.25-1.910157c1.90625 5.164063 3.101563 10.859375 3.101563 19.863281 0 13.890626-2.832031 19.914063-6.757813 28.253907-2.414062 5.132812-5.082031 10.816406-7.148437 18.148437h-24.816406c-3.335938 0-6.53125 1.417969-8.769531 3.886719-2.234376 2.472656-3.328126 5.792969-2.9960942 9.113281 4.5351562 45.398438 24.3710942 129.179688 106.1445312 182.125v12.816406c0 12.609376 10.261719 22.871094 22.875 22.871094h195.253906c12.609375 0 22.871094-10.261718 22.871094-22.871094v-12.871093c81.699219-52.945313 101.53125-136.691407 106.066406-182.074219.332031-3.316406-.761719-6.636719-3-9.109375-2.234375-2.46875-5.429687-3.886719-8.761719-3.886719h-212.113281c.113281-.242187.21875-.472656.335938-.722656 4.734375-10.070312 10.632812-22.601562 10.632812-45.679688 0-20.972656-4.871093-33.234374-9.3125-42.855468l267.367188-33.484375c4.148437-.519531 7.835937-2.632813 10.378906-5.953125 2.546875-3.316406 3.628906-7.425782 3.050781-11.570313zm-489.339844 34.742188-1.164062-3.699219c-.085938-.277344.066406-.570312.335938-.660156l11.648437-3.847656c.019531.382812.046875.75.070313 1.128906.015624.230468.027343.460937.042968.691406.039063.546875.078125 1.089844.125 1.632812 0 .03125.003906.058594.007813.089844.050781.613282.097656 1.230469.160156 1.835938l-10.570313 3.175781c-.277343.082031-.566406-.074219-.65625-.347656zm7.828126 26.304687c-.285157.03125-.550782-.167968-.589844-.453125l-.53125-3.84375c-.042969-.285156.15625-.550781.441406-.59375l9.386719-1.433593c.03125.085937.066406.167968.101562.257812.269531.710938.546875 1.402344.824219 2.082031.046875.113281.089844.230469.140625.34375.308594.757813.625 1.496094.941406 2.21875.007813.023438.019531.050781.03125.074219zm173.910156-67.96875c.003906-.011718.007812-.023437.011718-.035156.777344-2.296875 1.632813-4.4375 2.519532-6.484375 0-.003906.003906-.007813.003906-.015625.886719-2.042969 1.804688-3.992188 2.707031-5.910156.09375-.203125.191407-.410156.285157-.613282.144531-.308593.292968-.621093.4375-.933593.109374-.230469.214843-.460938.324218-.695313.269532-.585937.542969-1.175781.808594-1.773437.035156-.078125.070312-.160157.109375-.242188.238281-.539062.476563-1.089843.714844-1.644531.070312-.160156.136719-.324219.207031-.488281.257812-.617188.511719-1.242188.761719-1.882813.058593-.144531.109375-.292968.167969-.4375.199218-.523437.394531-1.054687.585937-1.59375.070313-.207031.144531-.414062.21875-.625.21875-.636718.429687-1.285156.632813-1.953125.074218-.238281.144531-.484375.214843-.730469.148438-.507812.292969-1.027343.433594-1.550781.066406-.257812.136719-.515625.203125-.777343.175781-.707032.34375-1.433594.5-2.179688.023438-.109375.050781-.207031.074219-.320312.011719-.046876.011719-.09375.023437-.144532.453125-2.214844.820313-4.597656 1.074219-7.214844l8.265625-2.730468c-.121094 1.046875-.25 2.09375-.402344 3.136718-.023437.171876-.050781.335938-.074218.503907-.136719.910156-.28125 1.8125-.441407 2.71875-.042969.253906-.085937.507812-.132812.757812-.191407 1.042969-.390625 2.085938-.609375 3.121094-.011719.054687-.027344.109375-.039063.164063-.207031.964843-.429687 1.921874-.664062 2.878906-.074219.300781-.148438.597656-.222657.898437-.238281.941407-.484374 1.878907-.746093 2.8125-.03125.109375-.0625.222657-.09375.332031-.277344.960938-.566407 1.917969-.867188 2.875-.058593.1875-.121093.382813-.179687.570313-.328125 1.019531-.671875 2.03125-1.027344 3.039063-.023438.070312-.046875.136718-.074219.203124-.382812 1.074219-.78125 2.144532-1.203125 3.203126-.003906.011718-.003906.019531-.007812.03125-.875 2.214843-1.746094 4.210937-2.570313 5.960937-4.207031 8.941406-8.179687 17.386719-8.179687 34.621094 0 .082031.003906.152343.003906.230469v.011718c0 .867188.015625 1.710938.039062 2.539063.011719.542969.039063 1.0625.058594 1.589843.015625.308594.027344.621094.042969.925782.03125.605468.070313 1.199218.113281 1.785156.011719.136719.023438.273438.03125.410156.429688 5.472656 1.328125 9.941406 2.503906 13.863282.011719.046874.027344.09375.042969.140624.40625 1.347657.84375 2.636719 1.308594 3.875.007813.015626.015625.035157.019531.050782 1.21875 3.246094 2.601563 6.203125 4.015625 9.210937 4.527344 9.621094 9.207031 19.574219 9.207031 39.300781 0 19.730469-4.679687 29.679688-9.207031 39.304688-1.070312 2.28125-2.167969 4.605469-3.183593 7.097656h-8.507813c1.511719-4.347656 3.277344-8.097656 5.003906-11.773437 4.207031-8.941407 8.179688-17.390625 8.179688-34.628907 0-17.234374-3.972657-25.683593-8.179688-34.628906-1.992187-4.230468-4.011719-8.53125-5.648437-13.691406-.003906-.015625-.007813-.027344-.011719-.039062-2.105469-6.660157-3.25-13.890626-3.492187-22.109376 0-.007812-.003907-.019531-.003907-.03125-.03125-1.109374-.046875-2.25-.046875-3.429687-.003906-11.757813 1.660156-20.042969 3.960938-26.855469zm-25.226563 146.464844c4.734375-10.070312 10.628907-22.601562 10.628907-45.679688 0-16.855468-3.144532-28.082031-6.683594-36.835937l8.691406-1.085937c1.40625 3.566406 2.890625 6.726562 4.273438 9.671874 3.925781 8.335938 6.757812 14.359376 6.757812 28.25 0 13.890626-2.832031 19.914063-6.757812 28.253907-2.414063 5.132812-5.082032 10.816406-7.144532 18.148437h-10.101562c.113281-.246094.21875-.476562.335937-.722656zm-2.484375-96.808594c-.050781-.121094-.105468-.242187-.15625-.367187-.140625-.335938-.28125-.675781-.417968-1.019531-.125-.308594-.246094-.617188-.363282-.925782-.199218-.519531-.394531-1.046875-.578125-1.582031-.046875-.128906-.089843-.261719-.132812-.390625-.453125-1.359375-.867188-2.78125-1.21875-4.320312l12.246093-1.871094c.011719.089844.027344.175781.035157.265625.152343 1.414062.328125 2.78125.527343 4.101562.019532.140625.039063.28125.0625.421875.214844 1.386719.453126 2.722656.714844 4.011719.019532.109375.035156.222656.054688.328125zm8.785156-66.398437 11.402344-3.765625c-.042968.085937-.082031.167968-.121094.253906-.167968.367188-.339843.734375-.515624 1.101562-.050782.109376-.101563.21875-.15625.332032-1.085938 2.304687-2.230469 4.746094-3.351563 7.410156-.027344.058594-.050781.117188-.078125.179688-.339844.820312-.683594 1.660156-1.019531 2.523437-.023438.0625-.046875.121094-.070313.183594l-10.550781 3.167969c1.535156-3.378907 3.089844-7.085938 4.460937-11.386719zm-11.609374 29.175781 13.027343-3.914062c-.773437 4.585937-1.28125 9.738281-1.40625 15.59375l-13.0625 1.996093c.046875-5.628906.5625-9.957031 1.441407-13.675781zm-23.476563 2.402344c.003906-.019532.007813-.035156.011719-.050782.902344-7.542968 2.625-13.34375 4.59375-18.347656.023437-.058594.042968-.113281.066406-.171875.332031-.835937.671875-1.652343 1.011719-2.449219.058593-.132812.113281-.261718.171875-.394531.113281-.265625.230468-.527343.34375-.789062.058594-.125.113281-.257813.171875-.382813.160156-.363281.324219-.722656.484375-1.078125.039062-.082031.078125-.164062.117187-.246093.136719-.300782.273438-.601563.410157-.898438.386718-.828125.769531-1.652344 1.15625-2.472656 1.078124-2.289063 2.289062-4.859375 3.390624-7.601563l9.421876-3.113281c-1.710938 5.917969-3.945313 10.757812-5.96875 15.058594-.050782.113281-.105469.222656-.15625.335937-.070313.140625-.132813.28125-.199219.425781-.160157.332032-.316407.667969-.472657 1.007813-.132812.28125-.265624.566406-.398437.851563-.09375.203124-.1875.40625-.28125.613281-.175781.378906-.347656.761719-.519531 1.144531-.039063.082031-.078125.167969-.113282.253906-3.390624 7.574219-6.195312 15.847656-6.195312 30.320313 0 3.132812.132812 5.964843.375 8.574219v.046874c.003906.019532.003906.039063.007812.054688.035157.371094.078126.71875.117188 1.078125.042969.40625.085938.816406.132812 1.210937.066407.515626.136719 1.015626.210938 1.511719.023438.175781.050781.355469.078125.53125.875 5.679688 2.304687 10.195313 3.980469 14.308594.058594.140625.113281.285156.171875.421875.070312.175781.144531.34375.21875.515625.171875.417969.347656.828125.527343 1.234375.035157.078125.066407.15625.101563.234375.671875 1.527344 1.351563 2.976563 2.011719 4.382813 0 .003906.003906.007812.003906.007812.082031.171875.160156.34375.242188.511719 4.527343 9.625 9.207031 19.574219 9.207031 39.304687 0 19.734375-4.679688 29.683594-9.207031 39.304688-1.074219 2.28125-2.167969 4.605468-3.1875 7.097656h-8.507813c1.515625-4.347656 3.277344-8.097656 5.003906-11.773438 4.207031-8.941406 8.183594-17.386718 8.183594-34.628906 0-17.238281-3.972656-25.683594-8.179687-34.628906-1.242188-2.636719-2.496094-5.304688-3.660157-8.1875 0-.003906 0-.007812-.003906-.011719-2.714844-6.722656-4.265625-13.046875-5.027344-20.5-.003906-.023437-.007812-.046875-.011719-.070312-.324218-3.183594-.503906-6.667969-.503906-10.53125 0-4.46875.242188-8.4375.667969-12.015625zm-5.015625 57.699218c3.921875 8.335938 6.753906 14.359376 6.753906 28.25 0 13.890626-2.832031 19.914063-6.753906 28.253907-2.414062 5.132812-5.085938 10.820312-7.148438 18.148437h-10.101562c.113281-.246094.222656-.476562.335938-.722656 4.738281-10.070312 10.632812-22.605469 10.632812-45.679688 0-13.203124-1.929688-22.949218-4.46875-30.761718l9.054688-1.132813c.570312 1.253907 1.140624 2.46875 1.695312 3.644531zm-18.464844-20.769531c-.007812-.011719-.011718-.023437-.019531-.035156-.496094-1.097656-.96875-2.183594-1.414063-3.285156l10.972657-1.675781c.023437.125.054687.246093.078125.375.210937 1.101562.4375 2.175781.675781 3.214843.054687.234375.113281.46875.167969.707031.257812 1.082032.527344 2.128907.8125 3.144532.023437.085937.042968.175781.066406.261718l-9.527344 1.191407c-.085937-.1875-.175781-.375-.261718-.558594-.015626-.03125-.027344-.0625-.042969-.09375-.519531-1.105469-1.027344-2.183594-1.507813-3.246094zm-.34375-49.050781 11.804688-3.898438c-.285156.976563-.550782 2-.808594 3.039063-.019531.074219-.039062.148437-.058594.222656-.339844 1.382813-.65625 2.820313-.945312 4.324219-.015625.085938-.03125.175781-.050782.261719-.089843.476562-.179687.941406-.265624 1.429687l-12.972657 3.894532c.820313-3.324219 1.9375-6.222657 3.296875-9.273438zm8.207032 21.460938c-.015626.878906-.027344 1.765624-.027344 2.679687 0 1.726563.035156 3.390625.097656 5.003906l-12.855469 1.964844c-.152343-1.75-.238281-3.660156-.265625-5.730469zm-19.816407-32.050782.128907.0625c-.019532.03125-.042969.066406-.0625.097656l-.113282-.050781c.011719-.039062.027344-.074219.046875-.109375zm-15.917969 32.199219c.011719-.503906.03125-.988281.046876-1.476563.011718-.300781.019531-.609374.03125-.90625.027343-.589843.058593-1.160156.09375-1.726562.011718-.183594.019531-.367188.03125-.546875.039062-.601563.085937-1.1875.132812-1.761719.011719-.140625.023438-.277344.035156-.414062.054688-.59375.109375-1.171875.171875-1.738282.011719-.109374.023438-.222656.039063-.332031.179687-1.601562.394531-3.09375.628906-4.496093.058594-.339844.113281-.679688.175781-1.015626.050781-.273437.101563-.539062.152344-.804687.101563-.515625.203125-1.027344.316406-1.539063.703125-3.261718 1.511719-5.921874 2.257813-8.074218l9.898437-3.269532c-3.449219 7.660157-6.328125 15.960938-6.328125 30.632813 0 14.71875 2.898438 23.027344 6.363282 30.710937.003906.007813.007812.015626.011718.023438.292969.640625.582032 1.28125.878906 1.917969.011719.019531.019532.042969.03125.0625.292969.636719.59375 1.273437.894532 1.910156.03125.066406.058594.128906.089844.191406.359374.765625.722656 1.542969 1.089843 2.332031.015625.035157.03125.070313.046875.105469.40625.878907.8125 1.773438 1.214844 2.6875h.003906c3.621094 8.234375 6.761719 17.832031 6.761719 33.988281 0 19.726563-4.683594 29.679688-9.207031 39.304688-1.074219 2.277344-2.167969 4.605469-3.1875 7.09375h-8.507813c1.515625-4.347656 3.277344-8.097656 5.007813-11.773438 4.207031-8.941406 8.179687-17.390624 8.179687-34.625 0-17.234374-3.972656-25.683593-8.183593-34.628906-.390626-.835937-.785157-1.675781-1.175782-2.519531 0 0 0-.003906-.003906-.003906-.285156-.617188-.574219-1.246094-.863281-1.894531-.007813-.019532-.015625-.039063-.023438-.054688-2.082031-4.632812-4.25-10.148438-5.613281-17.285156-.007812-.027344-.015625-.054688-.023438-.082032-.820312-4.332031-1.359374-9.277343-1.472656-15.113281 0-.003906 0-.007812 0-.011719-.015625-.765624-.027344-1.542968-.027344-2.339843.003907-.851563.011719-1.695313.03125-2.527344zm-3.277343 50.566406c3.339843 7.214844 5.65625 13.347657 5.65625 25.894531 0 13.890626-2.835938 19.914063-6.757813 28.253907-2.414062 5.132812-5.082031 10.816406-7.148437 18.148437h-10.101563c.117188-.242187.222656-.472656.339844-.722656 4.734375-10.070312 10.628906-22.601562 10.628906-45.679688 0-9.957031-1.097656-17.949218-2.726562-24.628906zm-8.285157-20.632812c.023438.085937.050782.164062.074219.246093.28125.992188.570313 1.953126.871094 2.886719.035156.101563.070313.203125.101563.304688.316406.96875.640624 1.910156.972656 2.824219.007812.015624.015625.039062.019531.054687l-8.773437 1.101563c-.003907-.007813-.007813-.015626-.007813-.019532-.90625-2.109375-1.824219-4.078125-2.707031-5.953125zm-2.789062-14.726563-2.113281.320313 2.082031-.625c.007812.101562.019531.203125.03125.304687zm-13.648438-15.449218c.003907-.121094.003907-.242188.007813-.359376.03125-.875.078125-1.726562.136719-2.558593.003906-.054688.007812-.109375.011718-.164063l13.25-4.375c-.019531.199219-.027343.40625-.042968.605469-.035156.476563-.066406.957031-.097656 1.4375-.058594.898437-.109376 1.808594-.148438 2.726563-.023438.488281-.042969.980468-.054688 1.472656-.011718.300781-.027343.59375-.035156.898437l-13.0625 3.921875c-.003906-.28125-.011718-.546875-.011718-.832031 0-.953125.019531-1.871094.046874-2.773437zm-21.480468 18.90625c-.003906-.027344-.003906-.050782-.007813-.078126-.421875-2.460937-.730469-5.003906-.941406-7.660156 0-.042968-.003906-.089844-.007813-.132812-.042968-.554688-.082031-1.117188-.113281-1.679688-.011719-.203125-.023437-.40625-.035156-.613281-.019531-.421875-.042969-.851563-.058594-1.28125-.011719-.234375-.019531-.46875-.027343-.707031-.015626-.4375-.027344-.882813-.035157-1.328125-.003906-.214844-.011719-.429688-.015625-.644531-.011718-.664063-.019531-1.332032-.019531-2.007813 0-.648437.011719-1.289063.023437-1.929687.007813-.46875.019532-.933594.03125-1.394532.0625-2.074218.175782-4.101562.351563-6.054687l8.085937-2.667969c-.089843.625-.160156 1.269531-.230468 1.914062-.023438.210938-.054688.417969-.078125.632813-.078125.746094-.140625 1.515625-.195313 2.285156-.019531.257813-.046875.507813-.0625.765625-.050781.757813-.085937 1.535156-.117187 2.320313-.011719.28125-.03125.554687-.039063.84375-.035156 1.070312-.050781 2.164062-.050781 3.285156 0 1.058594.015625 2.09375.042969 3.109375.410156 13.847656 3.5625 21.679688 7.105468 29.316406.035157.074219.070313.152344.105469.230469.308594.65625.613281 1.3125.925781 1.972656.015626.03125.03125.0625.046876.097657.378906.804687.761718 1.617187 1.140624 2.445312.007813.011719.015626.027344.019532.042969 1.207031 2.609375 2.40625 5.328125 3.488281 8.308593 0 .003907.003906.003907.003906.007813 2.578125 7.105469 4.507813 15.734375 4.507813 28.398437 0 19.730469-4.679688 29.679688-9.207032 39.304688-1.074218 2.28125-2.167968 4.605469-3.1875 7.097656h-8.507812c1.515625-4.347656 3.277344-8.097656 5.007812-11.773437 4.203126-8.941407 8.179688-17.390625 8.179688-34.628907 0-17.207031-3.960938-25.65625-8.160156-34.582031-.007813-.015625-.011719-.03125-.019532-.046875-.210937-.441406-.417968-.886718-.625-1.332031-.074218-.152344-.144531-.308594-.21875-.464844-.21875-.46875-.4375-.945312-.660156-1.425781-.046875-.101562-.09375-.203125-.140625-.304688-.234375-.511718-.464843-1.03125-.699219-1.558593-.027343-.0625-.058593-.128907-.085937-.195313-.246094-.558594-.492187-1.125-.734375-1.703125-.011719-.027343-.019531-.050781-.03125-.078125-1.027344-2.449218-2-5.054687-2.851562-7.929687-.003907-.019531-.011719-.035157-.015626-.054688-.734374-2.476562-1.375-5.15625-1.886718-8.121093zm388.59375 119.179687c-4.945313 43.574219-24.699219 119.964844-99.9375 168.15625h-153.289063c-4.136719 0-7.488281 3.355469-7.488281 7.492187 0 4.136719 3.351562 7.488282 7.488281 7.488282h147.453125v9.820312c0 4.355469-3.539062 7.894532-7.890625 7.894532h-195.253906c-4.351563 0-7.894531-3.539063-7.894531-7.894532v-9.820312h28.734375c4.136719 0 7.492187-3.351563 7.492187-7.488282 0-4.136718-3.355468-7.492187-7.492187-7.492187h-34.648438c-75.238281-48.199219-94.988281-124.582031-99.933593-168.15625zm58.914062-152.789063c-.136718.175782-.300781.195313-.355468.203126l-271.511719 34c-.804688-2.769532-1.460938-6.023438-1.804688-10.113282l270.878907-41.433594c.054687-.007812.21875-.03125.394531.101563.175781.128906.199219.292969.207031.347656l2.292969 16.503907c.007812.050781.03125.21875-.101563.390624zm0 0"/></svg>