<?xml version="1.0" encoding="iso-8859-1"?>
<!-- Generator: Adobe Illustrator 19.0.0, SVG Export Plug-In . SVG Version: 6.00 Build 0)  -->
<svg version="1.1" id="Capa_1" xmlns="http://www.w3.org/2000/svg" xmlns:xlink="http://www.w3.org/1999/xlink" x="0px" y="0px"
	 viewBox="0 0 512 512" style="enable-background:new 0 0 512 512;" xml:space="preserve">
<g>
	<g>
		<path d="M497,210h-16.53c-3.056-14.862-10.59-28.514-21.626-39.084c5.678-19.503,3.282-40.626-6.988-58.416
			c-10.272-17.79-27.368-30.426-47.096-35.26c-4.835-19.728-17.471-36.824-35.261-47.096c-17.788-10.27-38.912-12.666-58.415-6.988
			C297.035,8.488,277.543,0,257,0c-20.865,0-41.698,8.844-55.951,23.195c-19.539-5.727-40.721-3.344-58.549,6.949
			c-17.79,10.271-30.426,27.368-35.261,47.095c-19.728,4.834-36.824,17.47-47.095,35.26c-10.271,17.789-12.666,38.913-6.988,58.416
			C42.12,181.486,34.586,195.138,31.53,210H15c-8.284,0-15,6.716-15,15c0,88.059,45.651,169.721,120,216.259V467
			c0,24.813,20.187,45,45,45h182c24.813,0,45-20.187,45-45v-25.741c74.349-46.538,120-128.2,120-216.259
			C512,216.716,505.284,210,497,210z M79.496,188.019c6.034-4.177,8.159-12.107,5.023-18.743
			c-6.346-13.426-5.746-29.043,1.606-41.776c7.352-12.734,20.577-21.063,35.375-22.28c7.314-0.601,13.119-6.406,13.721-13.72
			c1.217-14.799,9.545-28.023,22.279-35.376c12.733-7.352,28.351-7.951,41.776-1.606c6.635,3.137,14.565,1.011,18.742-5.023
			C226.092,37.835,241.757,30,257,30c14.705,0,28.529,7.288,36.981,19.496c4.178,6.034,12.108,8.16,18.743,5.023
			c13.425-6.346,29.041-5.746,41.775,1.606s21.063,20.576,22.279,35.375c0.601,7.314,6.406,13.119,13.72,13.721
			c14.799,1.217,28.024,9.546,35.377,22.28c7.352,12.733,7.951,28.35,1.605,41.776c-3.136,6.635-1.011,14.566,5.023,18.743
			c7.91,5.476,13.737,13.215,16.871,21.981H62.624C65.759,201.234,71.585,193.495,79.496,188.019z M362,467c0,8.271-6.729,15-15,15
			H165c-8.271,0-15-6.729-15-15v-17h212V467z M369.098,420H142.902C77.53,382.275,35.497,314.374,30.502,239.8h450.996
			C476.503,314.374,434.47,382.275,369.098,420z"/>
	</g>
</g>
<g>
	<g>
		<circle cx="317" cy="135" r="15"/>
	</g>
</g>
<g>
	<g>
		<circle cx="377" cy="165" r="15"/>
	</g>
</g>
<g>
	<g>
		<circle cx="135" cy="135" r="15"/>
	</g>
</g>
<g>
</g>
<g>
</g>
<g>
</g>
<g>
</g>
<g>
</g>
<g>
</g>
<g>
</g>
<g>
</g>
<g>
</g>
<g>
</g>
<g>
</g>
<g>
</g>
<g>
</g>
<g>
</g>
<g>
</g>
</svg>
