<svg height="512" viewBox="0 0 128 128" width="512" xmlns="http://www.w3.org/2000/svg"><g><path d="m63.157 51.656a88.635 88.635 0 0 0 16.393 6.584 43.745 43.745 0 0 0 12.05 1.767 27.6 27.6 0 0 0 8.661-1.176c5.989-2.293 12.623-12.076 11.539-19.8-.456-3.252-2.738-8.84-12.894-9.723-6.156-.534-10 1.541-14.451 3.943a47.678 47.678 0 0 1 -18.28 6.249c-1.842.316-7.9 1.639-8.524 5.353-.58 3.46 4.001 5.976 5.506 6.803zm3.547-8.7a51.217 51.217 0 0 0 19.409-6.63c4.278-2.311 7.364-3.984 12.486-3.536 5.9.514 9.176 2.775 9.73 6.723.824 5.873-4.73 14.286-9.282 16.029-.072.025-7.426 2.511-18.53-.669a86.634 86.634 0 0 1 -15.676-6.29c-3.741-2.049-3.741-3.141-3.741-3.151.119-.694 2.756-1.976 5.6-2.472z"/><path d="m123.443 38.044c0-5.66-2.433-15.421-18.546-17.783-14.8-2.17-21.835 1.254-29.278 4.881-7.8 3.8-16.64 8.11-37.111 6.675-14.147-.994-24.069 1.924-29.492 8.67a22 22 0 0 0 -4.459 14.53v17.417c0 .611 0 1.162.047 1.632h-.046a28.019 28.019 0 0 0 .915 7.469c2.01 6.834 10.955 26.9 46.229 26.895a113 113 0 0 0 15.63-1.159c30.969-4.332 56.019-30.414 56.111-49.128v-20.1zm-111.683 4.616c4.668-5.784 13.579-8.256 26.5-7.351 21.386 1.5 30.69-3.026 38.888-7.02 7.244-3.53 13.5-6.578 27.238-4.565 10.2 1.5 15.58 6.468 15.553 14.38-.056 17.236-24.568 41.709-53.095 45.7-45.603 6.378-55.932-16.184-58.013-23.257-.037-.128-2.974-10.571 2.929-17.887zm108.183 15.473c-.085 17.227-24.6 41.685-53.095 45.671-45.613 6.377-55.938-16.189-58.017-23.257a25 25 0 0 1 -.773-6.454v-.025c0-.111 0-2.62 0-6.382 4.705 8.614 16.209 20.745 43.642 20.743a113 113 0 0 0 15.63-1.159c24.154-3.379 44.685-19.964 52.611-35.977z"/><path d="m26.984 71.4c7.088 4.441 16.453 6.714 27.016 6.714a86.731 86.731 0 0 0 19.635-2.377c9.183-2.146 12.78-4.094 12.826-6.948.06-3.789-6.261-5.671-17.431-8.67-4.507-1.21-9.167-2.461-11.5-3.628-2.967-1.484-4.224-3.386-5.68-5.589-2.578-3.9-5.5-8.325-18.155-9.446h-.064c-.441-.022-10.8-.485-15.626 5.241-2.267 2.689-2.934 6.2-1.981 10.441 1.264 5.624 5.054 10.556 10.96 14.262zm-6.309-22.445c3.133-3.724 10.049-4.018 12.156-4.018.315 0 .523.006.594.009 10.938.976 13.054 4.178 15.5 7.886 1.513 2.29 3.229 4.887 7.036 6.79 2.649 1.324 7.267 2.565 12.158 3.878 4.731 1.269 13.389 3.594 14.745 5.225-.444.462-2.33 1.8-10.032 3.6-24.832 5.809-39.032-.787-43.988-3.893-5.1-3.2-8.351-7.369-9.407-12.065-.708-3.155-.303-5.58 1.238-7.412z"/><path d="m65.722 95.729c-14.378 3.08-24.667.066-24.771.036a1.75 1.75 0 0 0 -1.016 3.349 47.434 47.434 0 0 0 12.782 1.516 65.591 65.591 0 0 0 13.737-1.48 1.749 1.749 0 1 0 -.732-3.421z"/><path d="m80.33 91.235a60.52 60.52 0 0 1 -6.84 2.248 1.75 1.75 0 0 0 .45 3.441 1.772 1.772 0 0 0 .453-.059 63.007 63.007 0 0 0 7.378-2.44 1.75 1.75 0 1 0 -1.441-3.19z"/></g></svg>