<?xml version="1.0" encoding="iso-8859-1"?>
<!-- Generator: Adobe Illustrator 19.0.0, SVG Export Plug-In . SVG Version: 6.00 Build 0)  -->
<svg version="1.1" id="Capa_1" xmlns="http://www.w3.org/2000/svg" xmlns:xlink="http://www.w3.org/1999/xlink" x="0px" y="0px"
	 viewBox="0 0 512 512" style="enable-background:new 0 0 512 512;" xml:space="preserve">
<g>
	<g>
		<path d="M256,74.667c-124.096,0-256,33.643-256,96s131.904,96,256,96s256-33.643,256-96S380.096,74.667,256,74.667z M256,245.333
			c-138.283,0-234.667-39.36-234.667-74.667C21.333,135.36,117.717,96,256,96s234.667,39.36,234.667,74.667
			S394.283,245.333,256,245.333z"/>
	</g>
</g>
<g>
	<g>
		<path d="M256,160c-72.299,0-194.667,11.221-194.667,53.333c0,14.891,14.528,26.603,44.416,35.819
			c5.632,1.771,11.605-1.429,13.333-7.04c1.749-5.632-1.408-11.605-7.04-13.333c-26.496-8.192-29.333-15.36-29.376-15.36
			c2.325-10.88,65.621-32.085,173.333-32.085s171.008,21.205,173.333,31.915c-0.021,0.064-2.709,7.296-29.376,15.531
			c-5.632,1.728-8.789,7.701-7.04,13.333c1.408,4.587,5.632,7.531,10.197,7.531c1.045,0,2.091-0.171,3.136-0.491
			c29.888-9.216,44.416-20.928,44.416-35.819C450.667,171.221,328.299,160,256,160z"/>
	</g>
</g>
<g>
	<g>
		<path d="M501.333,160c-5.888,0-10.667,4.779-10.667,10.667c0,105.728-88.747,187.328-164.757,225.109
			c-3.627,1.813-5.44,3.605-5.44,7.637C317.419,407.659,294.677,416,256,416s-61.419-8.341-64-10.667
			c0-4.053-2.283-7.744-5.931-9.557C110.08,358.059,21.333,276.459,21.333,170.667c0-5.888-4.779-10.667-10.667-10.667
			S0,164.779,0,170.667c0,113.536,91.819,200.661,172.267,242.048c11.072,23.872,75.755,24.619,83.733,24.619
			s72.661-0.747,83.733-24.619C420.203,371.285,512,284.096,512,170.667C512,164.779,507.221,160,501.333,160z"/>
	</g>
</g>
<g>
</g>
<g>
</g>
<g>
</g>
<g>
</g>
<g>
</g>
<g>
</g>
<g>
</g>
<g>
</g>
<g>
</g>
<g>
</g>
<g>
</g>
<g>
</g>
<g>
</g>
<g>
</g>
<g>
</g>
</svg>
