<?xml version="1.0"?>
<svg xmlns="http://www.w3.org/2000/svg" width="512" height="512" viewBox="0 0 128 128"><g><path d="M126.25,75.749H111.522a9.095,9.095,0,0,0-7.163-14.718H99.545a9.1,9.1,0,0,0-8.529-12.3h-.591a9.046,9.046,0,0,0,.58-3.191,21.136,21.136,0,0,0-5.321-14.027L75.31,19.808a1.75,1.75,0,0,0-3.06,1.162l0,9.85a5.61,5.61,0,0,1-5.61,5.612H46.1a9.1,9.1,0,0,0-8.529,12.3h-.591a9.1,9.1,0,0,0-8.529,12.3H23.641a9.095,9.095,0,0,0-7.163,14.718H1.75A1.749,1.749,0,0,0,0,77.5v2.845a17.771,17.771,0,0,0,17.75,17.75h15v8.937a1.749,1.749,0,0,0,1.75,1.75h59a1.749,1.749,0,0,0,1.75-1.75V98.094h15A17.771,17.771,0,0,0,128,80.344V77.5A1.749,1.749,0,0,0,126.25,75.749ZM18.031,70.141a5.617,5.617,0,0,1,5.61-5.61h7.9a1.75,1.75,0,0,0,1.3-2.927,5.6,5.6,0,0,1,4.147-9.373h3.678a1.749,1.749,0,0,0,1.3-2.926A5.6,5.6,0,0,1,46.1,39.932H66.645a9.109,9.109,0,0,0,9.11-9.114l0-5.234,7.312,8.25A17.637,17.637,0,0,1,87.505,45.54a5.552,5.552,0,0,1-1.031,3.191H69.125a1.75,1.75,0,0,0,0,3.5H91.016A5.6,5.6,0,0,1,95.163,61.6a1.75,1.75,0,0,0,1.3,2.927h7.9a5.609,5.609,0,1,1,0,11.218H23.641A5.616,5.616,0,0,1,18.031,70.141Zm73.719,35.14H36.25V98.094h55.5ZM124.5,80.344a14.267,14.267,0,0,1-14.25,14.25H17.75A14.267,14.267,0,0,1,3.5,80.344V79.249h121Z"/><path d="M64,61.031H44.125a1.75,1.75,0,1,0,0,3.5H64a1.75,1.75,0,0,0,0-3.5Z"/></g></svg>
