<svg id="Layer_1" enable-background="new 0 0 256 256" height="512" viewBox="0 0 256 256" width="512" xmlns="http://www.w3.org/2000/svg"><g><path d="m248.152 172.029c-4.482-4.482-11.745-4.482-16.227 0l-26.63 26.055c-1.844 1.844-4.346 2.881-6.954 2.881h-50.699c-6.193 0-11.52-4.765-11.801-10.952-.3-6.598 4.964-12.03 11.481-12.03h20.538c5.714 0 10.532-4.493 10.659-10.203.135-5.9-4.613-10.689-10.44-10.689l-43.42-.004c-12.758 0-24.861 5.681-33.009 15.503-4.255 5.401-10.752 8.554-17.629 8.554h-4.586v46.853h133.177c3.34 0 6.543-1.327 8.904-3.688l36.631-36.057c4.487-4.482 4.479-11.738.005-16.223z" fill="#ffb69f"/><path d="m65.623 171.492h-61.133v62.219h61.133c2.105 0 3.812-1.707 3.812-3.812v-54.595c0-2.105-1.707-3.812-3.812-3.812z" fill="#72c1e8"/><path d="m202.612 220.106h-115.868c-1.381 0-2.5-1.119-2.5-2.5s1.119-2.5 2.5-2.5h115.744l36.562-35.985c.986-.969 2.568-.956 3.535.027.969.984.956 2.567-.027 3.535l-36.576 36.002c-.927.926-2.097 1.421-3.37 1.421z" fill="#fbe0e2"/><path d="m57.059 221.931c-1.381 0-2.5-1.119-2.5-2.5v-1.972c0-1.381 1.119-2.5 2.5-2.5s2.5 1.119 2.5 2.5v1.972c0 1.381-1.12 2.5-2.5 2.5zm0-11.972c-1.381 0-2.5-1.119-2.5-2.5v-26c0-1.381 1.119-2.5 2.5-2.5s2.5 1.119 2.5 2.5v26c0 1.381-1.12 2.5-2.5 2.5z" fill="#c5e5ff"/><path d="m248.51 112.958h-176.075c-1.657 0-3 1.343-3 3 0 8.135 6.595 14.73 14.73 14.73h152.615c8.135 0 14.73-6.595 14.73-14.73 0-1.656-1.343-3-3-3z" fill="#efefef"/><path d="m171.617 44.099h-22.28c-37.66.43-68.05 31.09-68.05 68.86h158.37c0-37.78-30.416-68.437-68.04-68.86z" fill="#afafaf"/><path d="m225.145 102.438c-.183-.939-.396-1.895-.631-2.838-.336-1.339.479-2.696 1.818-3.031 1.332-.341 2.695.479 3.031 1.818.258 1.027.489 2.069.689 3.096.264 1.355-.621 2.668-1.977 2.932-1.35.261-2.666-.619-2.93-1.977zm-3.749-11.866c-8.817-19.768-28.395-32.711-49.874-32.973-1.381-.017-2.486-1.15-2.47-2.53.017-1.37 1.133-2.47 2.499-2.47h.031c23.425.286 44.77 14.392 54.38 35.936.563 1.261-.004 2.739-1.265 3.302-1.271.566-2.743-.013-3.301-1.265z" fill="#efefef"/><path d="m171.617 44.099h-22.28c-6.508-8.969-.16-21.81 11.14-21.81 11.284 0 17.655 12.833 11.14 21.81z" fill="#efefef"/><path d="m227.18 212.399c.98-.958 1.004-2.544.03-3.54-.94-.949-2.59-.96-3.53-.029-.99.97-1 2.56-.03 3.54.959.978 2.551.988 3.53.029z"/><path d="m71.899 230.5h130.71c4.03 0 7.82-1.57 10.671-4.42.01-.011.01-.011.01-.011l6.76-6.659c1.006-.986.982-2.579.03-3.53-.931-.95-2.58-.97-3.53-.03l-6.79 6.681-.01.01c-1.9 1.91-4.44 2.96-7.141 2.96h-130.679v-41.86h2.09c7.608 0 14.835-3.472 19.59-9.5.011 0 .011-.01.011-.01 7.689-9.24 19.01-14.54 31.04-14.54h43.42c4.188.009 7.939 3.334 7.939 8.12v.01c-.08 4.28-3.739 7.76-8.16 7.76h-20.54c-7.835 0-14.324 6.52-13.979 14.65.376 7.636 6.845 13.33 14.3 13.33h50.7c3.28 0 6.37-1.271 8.7-3.58 0-.01 0-.01 0-.01l26.63-26.051.02-.02c3.516-3.516 9.182-3.518 12.7 0 3.478 3.501 3.512 9.149 0 12.68l-15.59 15.34c-1.003.983-.984 2.567-.03 3.54.94.95 2.59.96 3.54.021 0 0 0-.01.01-.01l15.58-15.33.021-.021c5.419-5.419 5.497-14.24 0-19.76-5.5-5.5-14.348-5.403-19.74-.03 0 .011 0 .011-.01.011l-26.62 26.06-.02.02c-1.37 1.36-3.261 2.141-5.19 2.141h-50.7c-4.939 0-9.109-3.84-9.3-8.561-.273-5.028 3.81-9.409 8.979-9.42h20.54c7.022 0 13.16-5.555 13.16-12.949 0-7.131-5.81-12.94-12.939-12.94h-43.42c-13.435 0-26.255 5.961-34.931 16.4l-.04.05c-3.81 4.83-9.52 7.6-15.67 7.6h-2.09v-3.34c0-3.48-2.83-6.31-6.31-6.31h-36.131c-1.381 0-2.5 1.119-2.5 2.5 0 1.38 1.119 2.5 2.5 2.5h.01 36.12c.72 0 1.31.59 1.319 1.31v54.6c-.01.721-.6 1.311-1.319 1.311h-61.13c-1.381 0-2.5 1.12-2.5 2.5s1.119 2.5 2.5 2.5h61.13c3.277-.003 5.976-2.514 6.279-5.713z"/><circle cx="19.49" cy="171.49" r="2.5"/><path d="m4.49 168.99c-1.381 0-2.5 1.119-2.5 2.5 0 1.38 1.119 2.5 2.5 2.5h5c1.38 0 2.5-1.12 2.5-2.5 0-1.381-1.12-2.5-2.5-2.5z"/><path d="m96.55 65.83c-.91 1.04-.81 2.62.23 3.529 1 .913 2.606.831 3.52-.22.91-1.04.81-2.62-.22-3.53-1-.88-2.65-.769-3.53.221z"/><path d="m242.115 110.46c-1.28-36.613-30.035-66.215-66.434-68.693 4.017-10.647-3.922-21.977-15.201-21.977-11.334 0-19.212 11.378-15.206 21.983-15.606 1.052-29.924 7.079-41.344 16.807-1.05.885-1.186 2.469-.28 3.52.851 1.01 2.511 1.15 3.521.29 11.76-10.01 26.74-15.609 42.189-15.79h22.23c34.924.396 64.202 28.02 65.52 63.86h-153.28c.45-11.99 4.13-23.63 10.649-33.66.761-1.15.431-2.7-.729-3.45-1.12-.729-2.73-.39-3.46.73-7.077 10.873-11.007 23.398-11.455 36.38h-6.395c-3.04 0-5.5 2.47-5.5 5.5 0 9.5 7.73 17.229 17.23 17.229h152.61c9.5 0 17.229-7.729 17.229-17.229 0-3.03-2.47-5.5-5.5-5.5zm-91.426-68.86c-4.237-7.428 1.167-16.796 9.79-16.81 8.575.014 14.046 9.33 9.78 16.81zm98.321 74.36c-.01 6.729-5.5 12.22-12.229 12.229h-152.611c-6.74-.01-12.22-5.5-12.23-12.229 0-.28.221-.5.5-.5h176.07c.27 0 .5.22.5.5z"/></g></svg>