<svg id="Capa_1" enable-background="new 0 0 512.013 512.013" height="512" viewBox="0 0 512.013 512.013" width="512" xmlns="http://www.w3.org/2000/svg"><g><path d="m325.001 93.009-53.994-40.496-15 7.493-15-29.993-36.006-27.004c-4.512-3.413-10.62-3.94-15.703-1.421-5.083 2.549-8.291 7.734-8.291 13.418v360h75 75v-270c0-4.716-2.227-9.169-6.006-11.997z" fill="#4793ff"/><path d="m331.007 105.007c0-4.717-2.227-9.17-6.006-11.997l-53.994-40.496-15 7.493v315h75z" fill="#525cdd"/><path d="m30.007 195.007c0-5.01 2.505-9.697 6.68-12.48l91-60c4.6-3.062 10.532-3.34 15.396-.747 4.878 2.607 7.925 7.69 7.925 13.228v240h-121v-60l31-15-31-15v-30l31-15-31-15v-30.001z" fill="#4793ff"/><path d="m76.007 285.007c8.291 0 15 6.709 15 15s-6.709 15-15 15h-46v-30z" fill="#bcfbff"/><path d="m91.007 240.007c0 8.291-6.709 15-15 15h-46v-30h46c8.291 0 15 6.708 15 15z" fill="#bcfbff"/><path d="m482.007 195.007c0-5.01-2.505-9.697-6.68-12.48l-91-60c-4.6-3.062-10.532-3.34-15.396-.747-4.878 2.607-7.925 7.69-7.925 13.228v240h121v-60l-30-15 30-15v-30l-30-15 30-15v-30.001z" fill="#525cdd"/><path d="m467.007 90.007h-61c-24.814 0-45-20.186-45-45s20.186-45 45-45h61c24.814 0 45 20.186 45 45s-20.186 45-45 45z" fill="#f2f6fc"/><path d="m76.007 120.007c-24.814 0-45-20.186-45-45s20.186-45 45-45 45 20.186 45 45-20.186 45-45 45z" fill="#fed843"/><g fill="#bcfbff"><path d="m256.007 41.264-15-11.25v59.993c0 8.291 6.709 15 15 15s15-6.709 15-15v-37.493z"/><path d="m256.007 315.007c-8.291 0-15 6.709-15 15v45c0 8.291 6.709 15 15 15s15-6.709 15-15v-45c0-8.292-6.709-15-15-15z"/><path d="m256.007 225.007c-8.291 0-15 6.709-15 15v30c0 8.291 6.709 15 15 15s15-6.709 15-15v-30c0-8.292-6.709-15-15-15z"/><path d="m256.007 135.007c-8.291 0-15 6.709-15 15v30c0 8.291 6.709 15 15 15s15-6.709 15-15v-30c0-8.292-6.709-15-15-15z"/></g><path d="m271.007 90.007v-37.493l-15-11.25v63.743c8.291 0 15-6.709 15-15z" fill="#7dd5f4"/><path d="m271.007 375.007v-45c0-8.291-6.709-15-15-15v75c8.291 0 15-6.709 15-15z" fill="#7dd5f4"/><path d="m271.007 270.007v-30c0-8.291-6.709-15-15-15v60c8.291 0 15-6.709 15-15z" fill="#7dd5f4"/><path d="m271.007 180.007v-30c0-8.291-6.709-15-15-15v60c8.291 0 15-6.709 15-15z" fill="#7dd5f4"/><path d="m511.611 371.564c-1.597-6.768-7.646-11.558-14.604-11.558h-241-241c-6.958 0-13.008 4.79-14.604 11.558s1.67 13.755 7.896 16.86l241 122c2.109 1.055 4.409 1.582 6.709 1.582s4.6-.527 6.709-1.582l241-122c6.224-3.105 9.491-10.092 7.894-16.86z" fill="#2d4051"/><path d="m503.715 388.424c6.226-3.105 9.492-10.093 7.896-16.86-1.597-6.768-7.646-11.558-14.604-11.558h-241v152c2.3 0 4.6-.527 6.709-1.582z" fill="#1a252f"/><path d="m436.007 285.007c-8.291 0-15 6.709-15 15s6.709 15 15 15h46v-30z" fill="#7dd5f4"/><path d="m421.007 240.007c0 8.291 6.709 15 15 15h46v-30h-46c-8.292 0-15 6.708-15 15z" fill="#7dd5f4"/></g></svg>