<svg id="Layer_1" enable-background="new 0 0 509.532 509.532" height="512" viewBox="0 0 509.532 509.532" width="512" xmlns="http://www.w3.org/2000/svg"><g><g><path d="m385.565 233.888-66.941-16.848c-4.057-1.021-7.703-3.262-10.445-6.422l-19-21.886.444-28.242 30.621 1.673 14.59 16.806 60.709 15.28c10.946 2.755 17.587 13.862 14.831 24.808-2.756 10.948-13.866 17.586-24.809 14.831z" fill="#ffb69e"/></g><g><path d="m320.243 162.163-37.829-43.576c-7.399-8.523-20.308-9.436-28.832-2.036-8.523 7.4-9.435 20.308-2.035 28.832l37.632 43.349z" fill="#4699f2"/></g><g><path d="m152.163 507.251c-12.289-5.698-17.632-20.279-11.934-32.567l47.782-103.052-4.624-85.269 23.579-27.107 25.716 23.274 4.621 92.705c.198 3.971-.572 7.931-2.245 11.538l-50.328 108.545c-5.697 12.285-20.277 17.631-32.567 11.933z" fill="#5f6e9b"/></g><g><path d="m281.435 487.138-10.3-117.983-31.414-93.419c-4.317-12.839 2.59-26.746 15.429-31.063 12.842-4.317 26.747 2.59 31.063 15.429l32.347 96.191c.619 1.841 1.018 3.749 1.187 5.684l10.553 120.895c1.178 13.494-8.806 25.387-22.3 26.565-13.556 1.184-25.393-8.864-26.565-22.299z" fill="#414b82"/></g><path d="m279.797 106.887-53.841-3.6c-16.674-1.115-31.095 11.499-32.21 28.173l-10.357 154.904 114.224 7.637 10.357-154.903c1.115-16.675-11.499-31.096-28.173-32.211z" fill="#64afff"/><path d="m265.956.102c-24.683-1.65-46.031 17.021-47.682 41.705-1.651 24.683 17.021 46.031 41.705 47.682 24.683 1.65 46.031-17.021 47.682-41.705s-17.022-46.032-41.705-47.682z" fill="#ffb69e"/><path d="m195.076 66.104-35.841-3.6c-16.674-1.115-31.095 11.498-32.21 28.173l-8.352 124.914c-1.109 16.587 11.392 30.953 27.974 32.145l34.057 3.168c17.751 1.276 33.154-12.128 34.341-29.886l8.204-122.704c1.115-16.674-11.499-31.095-28.173-32.21z" fill="#e64937"/><path d="m162.194 242.339c16.759 1.748 31.606-10.799 32.675-27.615l.421-6.612c1.115-16.674-11.499-31.095-28.173-32.21l-35.841-3.6c-16.674-1.115-31.095 11.499-32.21 28.173l-.462 6.916c-1.135 16.979 12.331 31.375 29.348 31.375z" fill="#87afb9"/><g><path d="m209.286 227.408-1.902-16.405 48.192-53.026c4.685-5.051 7.556-11.555 8.125-18.359.726-8.66-2.114-16.953-7.998-23.349-5.883-6.396-13.908-9.919-22.599-9.919h-12.62v-12h12.62c11.911 0 23.367 5.028 31.432 13.796 8.063 8.767 12.118 20.604 11.124 32.474-.793 9.464-4.786 18.51-11.244 25.474z" fill="#e64937"/></g><g><path d="m184.981 137.465-28.437 15.193c-4.151 2.218-7.41 5.8-9.226 10.143l-32.052 76.66c-4.354 10.414.559 22.386 10.973 26.74 10.348 4.327 22.358-.492 26.74-10.973l29.244-69.946 19.974-10.671 7.088-26.499z" fill="#ffb69e"/></g><g><path d="m259.193 120.987c-5.319-9.956-17.7-13.715-27.657-8.396l-46.555 24.873 17.216 37.145 48.6-25.965c9.956-5.318 13.715-17.701 8.396-27.657z" fill="#4699f2"/></g><g><path d="m167.525 132.554c-.16 0-.32-.006-.482-.019-3.303-.263-5.769-3.153-5.506-6.457l4.984-62.717c.263-3.304 3.158-5.764 6.457-5.506 3.303.263 5.769 3.153 5.506 6.457l-4.984 62.717c-.25 3.141-2.877 5.525-5.975 5.525z" fill="#87afb9"/></g></g></svg>